<svg width="32" height="32" viewBox="0 0 32 32" fill="none" xmlns="http://www.w3.org/2000/svg">
<path d="M24.14 6.31894V2.53989C18.38 2.71984 6.64406 3.07975 5.78006 3.07975C4.91607 3.07975 3.62008 4.15948 3.08008 4.69935V27.9136H7.40006V6.31894H24.14Z" fill="url(#paint0_linear_4185_27620)"/>
<path d="M28.0709 2.00299C27.6279 2.04517 27.3115 2.44585 27.3115 2.88871V25.0316C27.3115 26.2758 26.299 27.3092 25.0334 27.3092H7.10383C6.66086 27.3092 6.26008 27.6255 6.2179 28.0684C6.17571 28.5745 6.57649 28.9963 7.06164 28.9963H25.6029C27.4803 28.9963 28.999 27.4779 28.999 25.601V2.84653C28.999 2.3615 28.5771 1.96081 28.0709 2.00299Z" fill="#FAFAFA"/>
<path d="M24.7811 2.76242C24.7389 2.31956 24.3382 2.00323 23.8952 2.00323C21.5749 2.00323 10.775 2.00323 5.26951 2.00323C3.45546 2.00323 2 3.45834 2 5.27195V28.1108C2 28.5536 2.3164 28.9543 2.75937 28.9965C3.26562 29.0387 3.68749 28.638 3.68749 28.153V6.13658C3.68749 4.78691 4.78436 3.69031 6.13435 3.69031H23.9374C24.4225 3.69031 24.8233 3.26854 24.7811 2.76242Z" fill="#FAFAFA"/>
<path d="M23.7128 9.55798H15.8027C15.3387 9.55798 14.959 9.93767 14.959 10.4017C14.959 10.8658 15.3387 11.2455 15.8027 11.2455H23.7128C24.1769 11.2455 24.5566 10.8658 24.5566 10.4017C24.5566 9.93767 24.1769 9.55798 23.7128 9.55798Z" fill="#4782F4"/>
<path d="M23.7128 13.877H15.8027C15.3387 13.877 14.959 14.2567 14.959 14.7208C14.959 15.1848 15.3387 15.5645 15.8027 15.5645H23.7128C24.1769 15.5645 24.5566 15.1848 24.5566 14.7208C24.5566 14.2567 24.1769 13.877 23.7128 13.877Z" fill="#4782F4"/>
<path d="M19.3929 18.196H15.8027C15.3387 18.196 14.959 18.5756 14.959 19.0397C14.959 19.5038 15.3387 19.8834 15.8027 19.8834H19.3929C19.8569 19.8834 20.2366 19.5038 20.2366 19.0397C20.2366 18.5756 19.8569 18.196 19.3929 18.196Z" fill="#4782F4"/>
<path d="M8.32811 8.12711C7.16796 8.12711 6.21875 9.07609 6.21875 10.236V19.2871C6.21875 19.498 6.30312 19.7089 6.45078 19.8776L9.08748 22.6191C9.25623 22.7878 9.46717 22.8722 9.6992 22.8722C9.93123 22.8722 10.1422 22.7878 10.3109 22.6191L12.9476 19.8565C13.0953 19.7089 13.1796 19.498 13.1796 19.266V10.236C13.1796 9.07609 12.2304 8.12711 11.0703 8.12711H8.32811ZM9.6992 20.8055L7.90624 18.9286V12.5768H8.85545H9.55998C9.55998 12.2574 9.53139 12.5768 9.99545 12.5768C9.31107 12.5768 10.4595 12.5768 9.99545 12.5768H10.5429H11.4922V18.9286L9.6992 20.8055ZM11.4922 10.236V10.8897H7.90624V10.236C7.90624 10.004 8.09608 9.81418 8.32811 9.81418H11.0703C11.3023 9.81418 11.4922 9.98289 11.4922 10.236Z" fill="#4782F4"/>
<defs>
<linearGradient id="paint0_linear_4185_27620" x1="13.61" y1="27.9136" x2="13.61" y2="2.53989" gradientUnits="userSpaceOnUse">
<stop offset="0.001" stop-color="#1E1E33"/>
<stop offset="1" stop-color="#373978"/>
</linearGradient>
</defs>
</svg>
