<svg width="32" height="32" viewBox="0 0 32 32" fill="none" xmlns="http://www.w3.org/2000/svg">
<g clip-path="url(#clip0_5983_47635)">
<path d="M24 4H8V9.71429C8 13 9.84286 16.5857 13.5 17.5" stroke="url(#paint0_linear_5983_47635)" stroke-width="2"/>
<path d="M15.682 7.03073C15.7788 6.71747 16.2222 6.71747 16.319 7.03073L16.8723 8.82116C16.9155 8.96085 17.0446 9.05611 17.1908 9.05611H19.0155C19.3344 9.05611 19.4713 9.46082 19.2179 9.65441L17.7134 10.8037C17.6024 10.8885 17.556 11.0336 17.5972 11.1671L18.165 13.0045C18.2609 13.3146 17.9021 13.5649 17.6441 13.3678L16.2029 12.2668C16.0834 12.1755 15.9176 12.1755 15.7981 12.2668L14.3569 13.3678C14.099 13.5649 13.7402 13.3146 13.836 13.0045L14.4038 11.1671C14.4451 11.0336 14.3987 10.8885 14.2877 10.8037L12.7832 9.65441C12.5298 9.46082 12.6667 9.05611 12.9856 9.05611H14.8102C14.9564 9.05611 15.0856 8.96085 15.1287 8.82116L15.682 7.03073Z" fill="#4782F4"/>
<path d="M3 4.5V10M29 4.5V10M16 19C22.8 19 25 13.5 25 10V3H7V10C7 13.5 9.5 19 16 19ZM16 19V28H9H8H24" stroke="#FAFAFA" stroke-width="1.5"/>
</g>
<defs>
<linearGradient id="paint0_linear_5983_47635" x1="16" y1="16.5714" x2="16" y2="4" gradientUnits="userSpaceOnUse">
<stop offset="0.001" stop-color="#1E1E33"/>
<stop offset="1" stop-color="#373978"/>
</linearGradient>
<clipPath id="clip0_5983_47635">
<rect width="32" height="32" fill="white"/>
</clipPath>
</defs>
</svg>
