<svg xmlns="http://www.w3.org/2000/svg" xmlns:xlink="http://www.w3.org/1999/xlink" width="131.699" height="134.036" viewBox="0 0 131.699 134.036"><defs><style>.a,.ab,.ae,.ag,.ai,.am,.k,.v,.x,.z{fill:none;}.b{fill:#294b90;}.c{fill:#5582e2;}.d{fill:#230202;}.e{fill:#6896f7;}.f{fill:#2e54a3;}.g{fill:#fdbb00;}.h{fill:#ffd85c;}.i{clip-path:url(#a);}.j{fill:#fbcc1c;}.ab,.ag,.ai,.k,.v,.x,.z{stroke:#fffcff;stroke-linejoin:round;}.ab,.ag,.ai,.am,.k,.v,.x,.z{stroke-linecap:round;}.k{stroke-width:2.091px;}.l{clip-path:url(#b);}.m{clip-path:url(#c);}.n{clip-path:url(#d);}.o{clip-path:url(#e);}.p{clip-path:url(#f);}.q{clip-path:url(#g);}.r{clip-path:url(#h);}.s{clip-path:url(#i);}.t{fill:#eb8e1c;}.u{clip-path:url(#j);}.v{stroke-width:1.094px;}.w{clip-path:url(#k);}.x{stroke-width:2.033px;}.y{clip-path:url(#l);}.z{stroke-width:1.775px;}.aa{clip-path:url(#m);}.ab{stroke-width:1.977px;}.ac{clip-path:url(#n);}.ad{fill:#fffffa;}.ae{stroke:#fffffa;stroke-miterlimit:10;stroke-width:2.272px;}.af{clip-path:url(#o);}.ag{stroke-width:1.412px;}.ah{clip-path:url(#p);}.ai{stroke-width:1.906px;}.aj{fill:#161616;}.ak{fill:#fff;}.al{fill:#2b0101;}.am{stroke:#5582e2;stroke-width:3.418px;}</style><clipPath id="a"><path class="a" d="M261.234,283.791a5.785,5.785,0,1,0,7.6,3.039A5.792,5.792,0,0,0,261.234,283.791Z" transform="translate(-257.728 -283.324)"/></clipPath><clipPath id="b"><path class="a" d="M312.26,293.469a5.785,5.785,0,1,0-5.493,6.064A5.792,5.792,0,0,0,312.26,293.469Z" transform="translate(-300.697 -287.969)"/></clipPath><clipPath id="c"><path class="a" d="M163.877,290.338a5.785,5.785,0,1,0,7.882-2.194A5.792,5.792,0,0,0,163.877,290.338Z" transform="translate(-163.131 -287.398)"/></clipPath><clipPath id="d"><path class="a" d="M156.862,301.624a5.785,5.785,0,1,0,2.158,7.892A5.791,5.791,0,0,0,156.862,301.624Z" transform="translate(-148.211 -300.865)"/></clipPath><clipPath id="e"><path class="a" d="M193.752,284.564a5.785,5.785,0,1,0,8.124.972A5.791,5.791,0,0,0,193.752,284.564Z" transform="translate(-191.544 -283.329)"/></clipPath><clipPath id="f"><path class="a" d="M196.865,309.559a5.785,5.785,0,1,0-7.265,3.762A5.792,5.792,0,0,0,196.865,309.559Z" transform="translate(-185.566 -302.022)"/></clipPath><clipPath id="g"><path class="a" d="M223.76,291.3a5.785,5.785,0,1,0,8.16-.6A5.791,5.791,0,0,0,223.76,291.3Z" transform="translate(-222.356 -289.295)"/></clipPath><clipPath id="h"><path class="a" d="M255.676,297.614a5.785,5.785,0,1,0,5.785,5.785A5.792,5.792,0,0,0,255.676,297.614Z" transform="translate(-249.891 -297.614)"/></clipPath><clipPath id="i"><path class="a" d="M318.487,294.622a5.785,5.785,0,1,0,5.785,5.786A5.792,5.792,0,0,0,318.487,294.622Z" transform="translate(-312.702 -294.622)"/></clipPath><clipPath id="j"><path class="a" d="M290.762,199.618a2.6,2.6,0,0,0-3.248,2.349,3.562,3.562,0,0,0,2.641,3.728,2.6,2.6,0,0,0,3.248-2.349A3.563,3.563,0,0,0,290.762,199.618Z" transform="translate(-287.499 -199.54)"/></clipPath><clipPath id="k"><path class="a" d="M162.009,238.363a4.829,4.829,0,0,0-3.759,6.432,6.62,6.62,0,0,0,7.288,4.356,4.829,4.829,0,0,0,3.759-6.432A6.622,6.622,0,0,0,162.009,238.363Z" transform="translate(-157.975 -238.264)"/></clipPath><clipPath id="l"><path class="a" d="M325.325,232.907a4.217,4.217,0,0,0-3.282,5.617,5.781,5.781,0,0,0,6.364,3.8,4.217,4.217,0,0,0,3.282-5.616A5.782,5.782,0,0,0,325.325,232.907Z" transform="translate(-321.802 -232.821)"/></clipPath><clipPath id="m"><path class="a" d="M233.8,235.384a5.471,5.471,0,1,0,6.454,4.267A5.477,5.477,0,0,0,233.8,235.384Z" transform="translate(-229.426 -235.273)"/></clipPath><clipPath id="n"><path class="a" d="M283.784,290.093a5.785,5.785,0,1,0,8.181-.068A5.792,5.792,0,0,0,283.784,290.093Z" transform="translate(-282.126 -288.367)"/></clipPath><clipPath id="o"><path class="a" d="M93.636,364.166c-1.865,1.26-1.852,3.278.027,4.5a6.663,6.663,0,0,0,6.79-.073c1.865-1.26,1.853-3.278-.026-4.5A6.665,6.665,0,0,0,93.636,364.166Z" transform="translate(-92.245 -363.199)"/></clipPath><clipPath id="p"><path class="a" d="M369.367,400.121c-3.338.455-5.356,2.671-4.5,4.94s4.271,3.746,7.609,3.291,5.357-2.671,4.5-4.94S372.7,399.666,369.367,400.121Z" transform="translate(-364.671 -400.038)"/></clipPath></defs><g transform="translate(-88.185 -114.486)"><g transform="translate(105.367 134.693)"><path class="b" d="M135.661,218.646l14.908,22.226h64.436l13.166-22.9Z" transform="translate(-132.782 -194.45)"/><rect class="b" width="64.437" height="33.3" transform="translate(17.788 13.122)"/><g transform="translate(2.244 24.752)"><path class="c" d="M148.89,244.949l-14.732-22.171h2.989l14.912,22.171Z" transform="translate(-134.157 -221.978)"/><path class="c" d="M321.348,243.855l13.732-22.971h-2.989l-13.912,22.971Z" transform="translate(-240.42 -220.884)"/><rect class="c" width="65.248" height="2.602" transform="translate(14.732 20.37)"/></g><rect class="d" width="75.464" height="8.174" transform="translate(12.783 55.595)"/><path class="e" d="M147.217,163.065s34.54-1.705,70.871,0l4.807,1.024,2.753,22.607-88.354-.681,4.086-20.9Z" transform="translate(-133.725 -162.307)"/><path class="f" d="M133.754,291.759l14.71-16.512v9.319l-5.547,4.949Z" transform="translate(-131.488 -227.524)"/><path class="f" d="M340.431,293.071l-14.752-17.825v9.319l4.97,4.949Z" transform="translate(-242.507 -227.524)"/><rect class="b" width="66.197" height="9.319" transform="translate(16.976 47.723)"/><path class="c" d="M222.3,164.167a3.793,3.793,0,0,0-3.271-1.86h-5.189a.732.732,0,0,0-.6,1.157c7.863,10.928,5.352,21,5.352,21H138.07s-2.511-10.074,5.352-21a.732.732,0,0,0-.6-1.157h-5.189a3.793,3.793,0,0,0-3.271,1.86c-2.338,3.957-7.15,12.407-4.964,22a3.314,3.314,0,0,0,3.233,2.564h91.391a3.313,3.313,0,0,0,3.233-2.564C229.444,176.574,224.633,168.123,222.3,164.167Z" transform="translate(-128.847 -162.307)"/></g><g transform="translate(111.481 149.312)"><g transform="translate(46.276 34.449)"><path class="g" d="M263.778,293.5A7.853,7.853,0,1,1,267.9,283.19,7.861,7.861,0,0,1,263.778,293.5Z" transform="translate(-252.833 -278.429)"/><path class="h" d="M261.234,283.791a5.785,5.785,0,1,0,7.6,3.039A5.792,5.792,0,0,0,261.234,283.791Z" transform="translate(-255.659 -281.255)"/><g transform="translate(2.068 2.068)"><g class="i"><path class="j" d="M262.38,294.86l7.626-11.579s5.265,4.637,1.962,9.229S262.38,294.86,262.38,294.86Z" transform="translate(-260.414 -283.299)"/></g></g><line class="k" x2="0.921" y2="0.207" transform="translate(5.923 14.332)"/><path class="k" d="M269.828,280.867" transform="translate(-262.647 -279.837)"/><path class="k" d="M269.828,280.735a3.934,3.934,0,0,1,2.9.475" transform="translate(-262.647 -279.705)"/></g><g transform="translate(64.433 36.412)"><path class="g" d="M295.812,291.315a7.853,7.853,0,1,1,8.231,7.457A7.862,7.862,0,0,1,295.812,291.315Z" transform="translate(-295.802 -283.074)"/><path class="h" d="M312.26,293.469a5.785,5.785,0,1,0-5.493,6.064A5.792,5.792,0,0,0,312.26,293.469Z" transform="translate(-298.629 -285.901)"/><g transform="translate(2.068 2.068)"><g class="l"><path class="j" d="M301.586,288.43l8.2,11.18s-6.179,3.322-9.334-1.373S301.586,288.43,301.586,288.43Z" transform="translate(-299.887 -288.235)"/></g></g><line class="k" x1="0.514" y2="0.791" transform="translate(1.937 3.79)"/><path class="k" d="M330.079,305.789" transform="translate(-315.595 -296.191)"/><path class="k" d="M328.09,305.789a3.933,3.933,0,0,1-1.456,2.558" transform="translate(-313.606 -296.191)"/></g><g transform="translate(6.305 36.171)"><path class="g" d="M172.928,294.216a7.853,7.853,0,1,1-2.979-10.7A7.862,7.862,0,0,1,172.928,294.216Z" transform="translate(-158.237 -282.504)"/><path class="h" d="M163.877,290.338a5.785,5.785,0,1,0,7.882-2.194A5.792,5.792,0,0,0,163.877,290.338Z" transform="translate(-161.063 -285.33)"/><g transform="translate(2.068 2.068)"><g class="m"><path class="j" d="M176.612,298.533l-.966-13.831s7,.49,7.16,6.144S176.612,298.533,176.612,298.533Z" transform="translate(-170.358 -285.841)"/></g></g><line class="k" y1="0.394" x2="0.857" transform="translate(10.25 13.778)"/><path class="k" d="M165.756,289.217" transform="translate(-162.579 -286.38)"/><path class="k" d="M165.756,287.324a3.933,3.933,0,0,1,2.6-1.386" transform="translate(-162.579 -284.487)"/></g><g transform="translate(0 41.861)"><path class="g" d="M147.278,310.643a7.853,7.853,0,1,1,10.713-2.929A7.861,7.861,0,0,1,147.278,310.643Z" transform="translate(-143.317 -295.97)"/><path class="h" d="M156.862,301.624a5.785,5.785,0,1,0,2.158,7.892A5.791,5.791,0,0,0,156.862,301.624Z" transform="translate(-146.143 -298.797)"/><g transform="translate(2.068 2.068)"><g class="n"><path class="j" d="M145.545,314.357l13.836-.9s-.522,7-6.177,7.132S145.545,314.357,145.545,314.357Z" transform="translate(-146.672 -308.134)"/></g></g><line class="k" x2="0.39" y2="0.859" transform="translate(1.521 10.222)"/><path class="k" d="M173.819,303.544" transform="translate(-160.93 -300.344)"/><path class="k" d="M173.819,303.544a3.934,3.934,0,0,1,1.374,2.6" transform="translate(-160.93 -300.344)"/></g><g transform="translate(18.311 34.452)"><path class="g" d="M199.355,292.46a7.853,7.853,0,1,1,1.32-11.027A7.862,7.862,0,0,1,199.355,292.46Z" transform="translate(-186.651 -278.436)"/><path class="h" d="M193.752,284.564a5.785,5.785,0,1,0,8.124.972A5.791,5.791,0,0,0,193.752,284.564Z" transform="translate(-189.477 -281.262)"/><g transform="translate(2.067 2.067)"><g class="o"><path class="j" d="M200.033,294.575l4.373-13.157s6.285,3.118,4.281,8.408S200.033,294.575,200.033,294.575Z" transform="translate(-196.446 -282.226)"/></g></g><line class="k" y1="0.038" x2="0.943" transform="translate(7.661 14.569)"/><path class="k" d="M199.519,281.827" transform="translate(-194.082 -280.394)"/><path class="k" d="M199.519,281.212a3.933,3.933,0,0,1,2.928-.292" transform="translate(-194.082 -279.78)"/></g><g transform="translate(15.784 42.35)"><path class="g" d="M181.04,302.6a7.853,7.853,0,1,1,5.106,9.863A7.862,7.862,0,0,1,181.04,302.6Z" transform="translate(-180.671 -297.127)"/><path class="h" d="M196.865,309.559a5.785,5.785,0,1,0-7.265,3.762A5.792,5.792,0,0,0,196.865,309.559Z" transform="translate(-183.497 -299.953)"/><g transform="translate(2.068 2.068)"><g class="p"><path class="j" d="M188.421,299.939l3.778,13.34s-6.951.954-8.266-4.548S188.421,299.939,188.421,299.939Z" transform="translate(-184.511 -300.819)"/></g></g><line class="k" x1="0.758" y2="0.562" transform="translate(3.454 2.159)"/><path class="k" d="M212.517,325.066" transform="translate(-199.06 -313.26)"/><path class="k" d="M209.432,325.066a3.933,3.933,0,0,1-2.258,1.888" transform="translate(-195.975 -313.26)"/></g><g transform="translate(31.331 36.973)"><path class="g" d="M231.256,297.386a7.853,7.853,0,1,1-.81-11.077A7.862,7.862,0,0,1,231.256,297.386Z" transform="translate(-217.463 -284.403)"/><path class="h" d="M223.76,291.3a5.785,5.785,0,1,0,8.16-.6A5.791,5.791,0,0,0,223.76,291.3Z" transform="translate(-220.288 -287.228)"/><g transform="translate(2.067 2.067)"><g class="q"><path class="j" d="M233.908,300.437l1.78-13.751s6.765,1.86,5.808,7.436S233.908,300.437,233.908,300.437Z" transform="translate(-229.026 -287.788)"/></g></g><line class="k" y1="0.218" x2="0.918" transform="translate(8.955 14.301)"/><path class="k" d="M227.535,289.162" transform="translate(-223.279 -287.151)"/><path class="k" d="M227.535,287.982a3.933,3.933,0,0,1,2.818-.846" transform="translate(-223.279 -285.971)"/></g><g transform="translate(42.965 40.487)"><path class="g" d="M252.85,308.426a7.853,7.853,0,1,1,7.853-7.853A7.862,7.862,0,0,1,252.85,308.426Z" transform="translate(-244.997 -292.719)"/><path class="h" d="M255.676,297.614a5.785,5.785,0,1,0,5.785,5.785A5.792,5.792,0,0,0,255.676,297.614Z" transform="translate(-247.823 -295.546)"/><g transform="translate(2.068 2.068)"><g class="r"><path class="j" d="M249.891,309.87l11.57-7.641s3.014,6.336-1.831,9.256S249.891,309.87,249.891,309.87Z" transform="translate(-249.891 -300.279)"/></g></g><line class="k" x2="0.765" y2="0.553" transform="translate(3.528 13.049)"/><path class="k" d="M268.48,295.836" transform="translate(-258.557 -294.519)"/><path class="k" d="M268.48,295.836a3.933,3.933,0,0,1,2.483,1.58" transform="translate(-258.557 -294.519)"/></g><g transform="translate(69.506 39.223)"><path class="g" d="M315.661,305.435a7.853,7.853,0,1,1,7.854-7.853A7.862,7.862,0,0,1,315.661,305.435Z" transform="translate(-307.808 -289.728)"/><path class="h" d="M318.487,294.622a5.785,5.785,0,1,0,5.785,5.786A5.792,5.792,0,0,0,318.487,294.622Z" transform="translate(-310.634 -292.554)"/><g transform="translate(2.068 2.068)"><g class="s"><path class="j" d="M312.7,306.878l11.57-7.64s3.014,6.336-1.831,9.255S312.7,306.878,312.7,306.878Z" transform="translate(-312.702 -297.287)"/></g></g><line class="k" x2="0.765" y2="0.553" transform="translate(3.528 13.049)"/><path class="k" d="M331.291,292.845" transform="translate(-321.368 -291.528)"/><path class="k" d="M331.291,292.845a3.933,3.933,0,0,1,2.483,1.58" transform="translate(-321.368 -291.528)"/></g><g transform="translate(59.236)"><path class="t" d="M287.111,206.731a4.836,4.836,0,0,1-3.585-5.061,3.527,3.527,0,0,1,4.409-3.189,4.837,4.837,0,0,1,3.585,5.062A3.528,3.528,0,0,1,287.111,206.731Z" transform="translate(-283.504 -197.753)"/><path class="g" d="M288.6,205.259a4.836,4.836,0,0,1-3.585-5.061,3.527,3.527,0,0,1,4.409-3.189,4.836,4.836,0,0,1,3.585,5.061A3.527,3.527,0,0,1,288.6,205.259Z" transform="translate(-284.365 -196.903)"/><path class="h" d="M290.762,199.618a2.6,2.6,0,0,0-3.248,2.349,3.562,3.562,0,0,0,2.641,3.728,2.6,2.6,0,0,0,3.248-2.349A3.563,3.563,0,0,0,290.762,199.618Z" transform="translate(-285.811 -198.426)"/><g transform="translate(1.688 1.114)"><g class="u"><path class="j" d="M287.063,206.414l6.29-2.634s1.2,3.688-1.418,4.643S287.063,206.414,287.063,206.414Z" transform="translate(-287.247 -201.988)"/></g></g><line class="v" x2="0.36" y2="0.382" transform="translate(2.174 6.444)"/><path class="v" d="M297.809,199.374" transform="translate(-291.765 -198.33)"/><path class="v" d="M297.809,199.374a2.408,2.408,0,0,1,1.181,1.126" transform="translate(-291.764 -198.33)"/></g><g transform="translate(3.516 15.513)"><path class="t" d="M161.908,252.016a8.988,8.988,0,0,1-9.894-5.914,6.555,6.555,0,0,1,5.1-8.732,8.99,8.99,0,0,1,9.895,5.914A6.555,6.555,0,0,1,161.908,252.016Z" transform="translate(-151.639 -235.706)"/><path class="g" d="M163.336,248.4a8.989,8.989,0,0,1-9.895-5.914,6.556,6.556,0,0,1,5.1-8.732,8.989,8.989,0,0,1,9.895,5.914A6.555,6.555,0,0,1,163.336,248.4Z" transform="translate(-152.464 -233.615)"/><path class="h" d="M162.009,238.363a4.829,4.829,0,0,0-3.759,6.432,6.62,6.62,0,0,0,7.288,4.356,4.829,4.829,0,0,0,3.759-6.432A6.622,6.622,0,0,0,162.009,238.363Z" transform="translate(-155.298 -236.299)"/><g transform="translate(2.677 1.964)"><g class="w"><path class="j" d="M161.374,249.547l8.717-9.2s4.81,5.367,1.075,8.959S161.374,249.547,161.374,249.547Z" transform="translate(-159.938 -239.467)"/></g></g><line class="x" x2="0.899" y2="0.378" transform="translate(5.932 13.078)"/><path class="x" d="M171.656,235.963" transform="translate(-163.198 -234.971)"/><path class="x" d="M171.656,235.96a4.474,4.474,0,0,1,2.853,1.028" transform="translate(-163.198 -234.968)"/></g><g transform="translate(73.082 13.462)"><path class="t" d="M325.237,244.829a7.848,7.848,0,0,1-8.64-5.164,5.724,5.724,0,0,1,4.455-7.625,7.849,7.849,0,0,1,8.64,5.164A5.724,5.724,0,0,1,325.237,244.829Z" transform="translate(-316.271 -230.587)"/><path class="g" d="M326.484,241.668a7.849,7.849,0,0,1-8.64-5.164,5.724,5.724,0,0,1,4.455-7.625,7.849,7.849,0,0,1,8.64,5.164A5.724,5.724,0,0,1,326.484,241.668Z" transform="translate(-316.991 -228.762)"/><path class="h" d="M325.325,232.907a4.217,4.217,0,0,0-3.282,5.617,5.781,5.781,0,0,0,6.364,3.8,4.217,4.217,0,0,0,3.282-5.616A5.782,5.782,0,0,0,325.325,232.907Z" transform="translate(-319.465 -231.106)"/><g transform="translate(2.337 1.715)"><g class="y"><path class="j" d="M324.771,242.673l7.611-8.033s4.2,4.687.939,7.823S324.771,242.673,324.771,242.673Z" transform="translate(-323.517 -233.871)"/></g></g><line class="z" x2="0.785" y2="0.33" transform="translate(5.179 11.42)"/><path class="z" d="M333.749,230.812" transform="translate(-326.363 -229.946)"/><path class="z" d="M333.749,230.81a3.908,3.908,0,0,1,2.491.9" transform="translate(-326.363 -229.944)"/></g><g transform="translate(33.98 14.257)"><path class="t" d="M232.643,246.93a7.427,7.427,0,1,1,5.793-8.761A7.434,7.434,0,0,1,232.643,246.93Z" transform="translate(-223.732 -231.557)"/><path class="g" d="M233.708,245.349a7.427,7.427,0,1,1,5.793-8.761A7.435,7.435,0,0,1,233.708,245.349Z" transform="translate(-224.347 -230.644)"/><path class="h" d="M233.8,235.384a5.471,5.471,0,1,0,6.454,4.267A5.477,5.477,0,0,0,233.8,235.384Z" transform="translate(-227.02 -233.317)"/><g transform="translate(2.406 1.956)"><g class="aa"><path class="j" d="M231.39,246.491l9.277-9.266s3.99,5.3.052,8.922S231.39,246.491,231.39,246.491Z" transform="translate(-230.56 -236.4)"/></g></g><line class="ab" x2="0.813" y2="0.368" transform="translate(4.851 13.059)"/><path class="ab" d="M243.989,232.963" transform="translate(-235.43 -231.983)"/><path class="ab" d="M243.989,232.959a3.719,3.719,0,0,1,2.6.995" transform="translate(-235.429 -231.979)"/></g><g transform="translate(56.587 36.581)"><path class="g" d="M290.682,296.832a7.853,7.853,0,1,1-.091-11.106A7.862,7.862,0,0,1,290.682,296.832Z" transform="translate(-277.234 -283.475)"/><path class="h" d="M283.784,290.093a5.785,5.785,0,1,0,8.181-.068A5.792,5.792,0,0,0,283.784,290.093Z" transform="translate(-280.059 -286.3)"/><g transform="translate(2.067 2.067)"><g class="ac"><path class="j" d="M292.631,299.533l2.666-13.606s6.63,2.294,5.314,7.8S292.631,299.533,292.631,299.533Z" transform="translate(-288.192 -286.958)"/></g></g><line class="k" y1="0.158" x2="0.93" transform="translate(8.521 14.419)"/><path class="k" d="M288.217,287.712" transform="translate(-283.576 -285.922)"/><path class="k" d="M288.217,286.741a3.935,3.935,0,0,1,2.867-.662" transform="translate(-283.576 -284.951)"/></g></g><g transform="translate(92.113 114.486)"><path class="ad" d="M251.161,180.573l.836,2.209,2.209.836-2.209.836-.836,2.209-.836-2.209-2.209-.836,2.209-.836Z" transform="translate(-184.465 -152.648)"/><path class="ad" d="M100.512,217.661l.832,2.2,2.2.832-2.2.832-.832,2.2-.832-2.2-2.2-.832,2.2-.832Z" transform="translate(-97.482 -174.064)"/><path class="ad" d="M380.366,250.289l.832,2.2,2.2.832-2.2.832-.832,2.2-.832-2.2-2.2-.832,2.2-.832Z" transform="translate(-259.083 -192.905)"/><path class="ad" d="M210.7,114.486l.832,2.2,2.2.832-2.2.832-.832,2.2-.832-2.2-2.2-.832,2.2-.832Z" transform="translate(-161.112 -114.486)"/><path class="ae" d="M299.158,136.844a1.7,1.7,0,1,1,2.382-.282A1.7,1.7,0,0,1,299.158,136.844Z" transform="translate(-213.566 -125.649)"/><path class="ad" d="M352.4,270.325a1.4,1.4,0,1,1-1.4-1.4A1.4,1.4,0,0,1,352.4,270.325Z" transform="translate(-243.065 -203.666)"/><circle class="ae" cx="1.401" cy="1.401" r="1.401" transform="translate(13.239 63.204)"/><path class="ad" d="M280.791,246.629a1.007,1.007,0,1,1-1.007,1.007A1.007,1.007,0,0,1,280.791,246.629Z" transform="translate(-202.752 -190.792)"/></g><g transform="translate(88.185 218.444)"><path class="t" d="M90.072,364.152a8.5,8.5,0,0,1,9.218-.107c2.551,1.781,2.567,4.727.036,6.568a8.5,8.5,0,0,1-9.218.108C87.558,368.939,87.541,365.992,90.072,364.152Z" transform="translate(-88.185 -361.797)"/><path class="g" d="M90.072,361.823a9.047,9.047,0,0,1,9.218-.1c2.551,1.656,2.567,4.394.036,6.1a9.046,9.046,0,0,1-9.218.1C87.558,366.272,87.541,363.533,90.072,361.823Z" transform="translate(-88.185 -360.51)"/><path class="h" d="M93.636,364.166c-1.865,1.26-1.852,3.278.027,4.5a6.663,6.663,0,0,0,6.79-.073c1.865-1.26,1.853-3.278-.026-4.5A6.665,6.665,0,0,0,93.636,364.166Z" transform="translate(-90.529 -362.063)"/><g transform="translate(1.716 1.137)"><g class="af"><path class="j" d="M97.057,369.345,94.706,361.9s-5.48,1.351-4.332,4.357S97.057,369.345,97.057,369.345Z" transform="translate(-91.074 -362.451)"/></g></g><line class="ag" x1="0.774" y1="0.074" transform="translate(5.253 7.947)"/><path class="ag" d="M109.76,362.739" transform="translate(-100.643 -361.797)"/><path class="ag" d="M106.5,362.246a4.531,4.531,0,0,0-2.387-.325" transform="translate(-97.382 -361.304)"/></g><g transform="translate(202.732 233.598)"><path class="t" d="M370.475,415.019c-4.472.966-9.308-.825-10.779-3.992s.97-6.529,5.442-7.494,9.308.825,10.779,3.992S374.948,414.053,370.475,415.019Z" transform="translate(-359.268 -400.356)"/><path class="t" d="M359.318,413.017l.063-3.768,17.066.587-.125,3.684-8.515,4.339Z" transform="translate(-359.297 -403.808)"/><path class="g" d="M370.65,408.121c-4.473.966-9.307-.825-10.779-3.992s.97-6.529,5.442-7.494,9.308.825,10.779,3.992S375.123,407.155,370.65,408.121Z" transform="translate(-359.369 -396.373)"/><path class="h" d="M369.367,400.121c-3.338.455-5.356,2.671-4.5,4.94s4.271,3.746,7.609,3.291,5.357-2.671,4.5-4.94S372.7,399.666,369.367,400.121Z" transform="translate(-362.388 -398.489)"/><g transform="translate(2.283 1.549)"><g class="ah"><path class="j" d="M367.559,408.65l10.054-7.085s4.857,4.078.572,6.845S367.559,408.65,367.559,408.65Z" transform="translate(-366.339 -400.92)"/></g></g><line class="ai" x2="0.978" y2="0.234" transform="translate(5.911 10.769)"/><path class="ai" d="M379.454,398.179" transform="translate(-370.924 -397.416)"/><path class="ai" d="M379.454,398.15a5.829,5.829,0,0,1,3.1.6" transform="translate(-370.924 -397.387)"/></g><g transform="translate(106.753 195.259)"><path class="e" d="M0,0H81.494V34.377H0Z" transform="translate(6.289 4.388)"/><path class="aj" d="M132.129,325.163" transform="translate(-132.129 -316.914)"/><path class="c" d="M141.86,325.163l5.385,34.377h-6.536a2.768,2.768,0,0,1-2.723-2.272l-5.856-32.105Z" transform="translate(-132.129 -316.914)"/><path class="c" d="M330.821,325.163l-5.386,34.377h6.536a2.768,2.768,0,0,0,2.723-2.272l5.857-32.105Z" transform="translate(-243.753 -316.914)"/><rect class="c" width="77.575" height="6.824" transform="translate(9.015 35.802)"/><path class="c" d="M3.372,0H93.216A3.583,3.583,0,0,1,96.8,3.583V6.824a0,0,0,0,1,0,0H0a0,0,0,0,1,0,0V3.372A3.372,3.372,0,0,1,3.372,0Z" transform="translate(0 1.425)"/><g transform="translate(2.995 3.162)"><g transform="translate(81.438 0.237)"><path class="f" d="M335.295,394.491a1.675,1.675,0,1,1-1.675-1.675A1.675,1.675,0,0,1,335.295,394.491Z" transform="translate(-331.944 -359.379)"/><path class="f" d="M341.208,367.516a1.675,1.675,0,1,1-1.675-1.675A1.675,1.675,0,0,1,341.208,367.516Z" transform="translate(-335.358 -343.802)"/><path class="f" d="M345.241,340.541a1.675,1.675,0,1,1-1.675-1.675A1.675,1.675,0,0,1,345.241,340.541Z" transform="translate(-337.687 -328.226)"/><path class="f" d="M348.334,315.36a1.675,1.675,0,1,1-1.675-1.675A1.675,1.675,0,0,1,348.334,315.36Z" transform="translate(-339.473 -313.685)"/></g><path class="f" d="M152.255,394.491a1.675,1.675,0,1,0,1.675-1.675A1.675,1.675,0,0,0,152.255,394.491Z" transform="translate(-146.745 -359.141)"/><path class="f" d="M187.631,394.491a1.675,1.675,0,1,0,1.675-1.675A1.676,1.676,0,0,0,187.631,394.491Z" transform="translate(-167.173 -359.141)"/><path class="f" d="M223.007,394.491a1.675,1.675,0,1,0,1.675-1.675A1.676,1.676,0,0,0,223.007,394.491Z" transform="translate(-187.601 -359.141)"/><path class="f" d="M258.383,394.491a1.675,1.675,0,1,0,1.675-1.675A1.676,1.676,0,0,0,258.383,394.491Z" transform="translate(-208.029 -359.141)"/><path class="f" d="M293.759,394.491a1.675,1.675,0,1,0,1.675-1.675A1.676,1.676,0,0,0,293.759,394.491Z" transform="translate(-228.456 -359.141)"/><path class="f" d="M170.942,314.8a1.675,1.675,0,1,0,1.675-1.675A1.675,1.675,0,0,0,170.942,314.8Z" transform="translate(-157.536 -313.123)"/><circle class="f" cx="1.675" cy="1.675" r="1.675" transform="translate(28.354 0)"/><circle class="f" cx="1.675" cy="1.675" r="1.675" transform="translate(58.251 0)"/><path class="f" d="M312.852,314.8a1.675,1.675,0,1,0,1.675-1.675A1.675,1.675,0,0,0,312.852,314.8Z" transform="translate(-239.482 -313.123)"/><path class="f" d="M146.342,367.516a1.675,1.675,0,1,0,1.675-1.675A1.675,1.675,0,0,0,146.342,367.516Z" transform="translate(-143.331 -343.565)"/><path class="f" d="M142.309,340.541a1.675,1.675,0,1,0,1.675-1.675A1.675,1.675,0,0,0,142.309,340.541Z" transform="translate(-141.002 -327.988)"/><path class="f" d="M139.216,315.36a1.675,1.675,0,1,0,1.675-1.675A1.675,1.675,0,0,0,139.216,315.36Z" transform="translate(-139.216 -313.448)"/></g><g transform="translate(39.082)"><rect class="f" width="17.077" height="12.028" rx="6.014" transform="translate(0 0.901)"/><rect class="ak" width="17.077" height="12.028" rx="6.014"/><g transform="translate(6.692 2.126)"><path class="al" d="M244.149,312.52a1.847,1.847,0,1,1-1.847-1.847A1.847,1.847,0,0,1,244.149,312.52Z" transform="translate(-240.456 -310.673)"/><path class="al" d="M242.624,315.043l-1.611,5.182h3.458Z" transform="translate(-240.777 -313.196)"/></g></g><path class="am" d="M0,0H72.252" transform="translate(12.479 22.965)"/></g></g></svg>